<?xml version="1.0" encoding="utf-8"?>
<!-- Generator: Adobe Illustrator 16.0.0, SVG Export Plug-In . SVG Version: 6.00 Build 0)  -->
<!DOCTYPE svg PUBLIC "-//W3C//DTD SVG 1.1//EN" "http://www.w3.org/Graphics/SVG/1.1/DTD/svg11.dtd">
<svg version="1.1" id="Layer_1" xmlns="http://www.w3.org/2000/svg" xmlns:xlink="http://www.w3.org/1999/xlink" x="0px" y="0px"
	 width="440px" height="440px" viewBox="0 0 440 440" enable-background="new 0 0 440 440" xml:space="preserve">
<g>
	<g>
		<path fill="#FFFFFF" d="M229.986,250.443l-20.535-16.141c-6.229-5.21-14.752-12.085-14.752-24.813
			c0-12.729,8.522-20.812,15.917-28.306c23.901-19.066,47.838-39.262,47.838-81.99c0-43.854-27.349-67.004-40.445-77.987h35.333
			L289.75,0.5H172.423c-30.718,0-69.435,4.592-101.885,31.689C46.037,53.621,34.09,83,34.09,109.586
			c0,45.037,34.187,90.691,94.505,90.691c5.719,0,11.945-0.618,18.271-1.154c-2.856,6.875-5.725,12.648-5.725,22.531
			c0,17.832,9.112,28.789,17.076,39.209c-25.599,1.719-73.432,4.592-108.778,26.533c-33.575,20.25-43.855,49.655-43.855,70.47
			c0,42.753,39.885,82.634,122.461,82.634c97.913,0,149.771-54.921,149.771-109.195C277.816,291.506,255.035,271.82,229.986,250.443
			z M155.361,184.057c-48.975,0-71.145-64.13-71.145-102.775c0-15.039,2.843-30.616,12.501-42.728
			c9.113-11.547,25.057-19.066,39.868-19.066c47.255,0,71.771,64.694,71.771,106.24c0,10.419-1.151,28.896-14.251,42.163
			C184.996,177.101,169.607,184.057,155.361,184.057z M155.956,416.196c-60.935,0-100.233-29.462-100.233-70.443
			c0-41.034,36.457-54.864,48.958-59.457c23.915-8.11,54.686-9.237,59.793-9.237c5.702,0,8.558,0,13.123,0.562
			c43.288,31.152,62.077,46.809,62.077,76.217C239.674,389.636,210.616,416.196,155.956,416.196z M372.25,193v-64.166h-27.499V193
			h-64.168v27.5h64.168v64.166h27.499V220.5h64.166V193H372.25z"/>
	</g>
</g>
</svg>
